<?xml version="1.0" standalone="no"?>
<!DOCTYPE svg PUBLIC "-//W3C//DTD SVG 20010904//EN"
 "http://www.w3.org/TR/2001/REC-SVG-20010904/DTD/svg10.dtd">
<svg version="1.0" xmlns="http://www.w3.org/2000/svg"
 width="700.000000pt" height="700.000000pt" viewBox="0 0 700.000000 700.000000"
 preserveAspectRatio="xMidYMid meet">
<metadata>
Created by potrace 1.14, written by Peter Selinger 2001-2017
</metadata>
<g transform="translate(0.000000,700.000000) scale(0.100000,-0.100000)"
fill="#000000" stroke="none">
<path d="M2280 3444 l0 -1725 898 4 c864 3 902 4 1034 25 230 37 370 92 516
201 180 136 313 349 368 586 28 119 26 358 -4 480 -58 234 -197 408 -404 508
-48 23 -87 45 -87 48 -1 4 28 24 64 45 86 50 174 130 221 201 171 258 159 698
-26 968 -46 67 -138 154 -216 205 -147 96 -329 150 -568 170 -75 6 -477 10
-962 10 l-834 0 0 -1726z m1746 1099 c115 -26 158 -46 211 -100 60 -60 88
-153 80 -272 -9 -151 -54 -230 -164 -288 -123 -66 -127 -66 -680 -70 l-503 -4
0 381 0 382 483 -5 c440 -4 490 -6 573 -24z m-56 -1313 c161 -20 250 -60 328
-145 66 -72 92 -149 92 -276 0 -257 -101 -398 -335 -465 -52 -16 -124 -18
-572 -22 l-513 -3 0 460 0 461 458 0 c259 0 494 -5 542 -10z"/>
</g>
</svg>
